<svg width="66" height="56" viewBox="0 0 66 56" fill="none" xmlns="http://www.w3.org/2000/svg" xmlns:xlink="http://www.w3.org/1999/xlink">
<path d="M37.625,53.21C37.625,54.039 38.297,54.71 39.125,54.71C39.953,54.71 40.625,54.039 40.625,53.21L37.625,53.21ZM40.625,0.71C40.625,-0.118 39.953,-0.79 39.125,-0.79C38.297,-0.79 37.625,-0.118 37.625,0.71L40.625,0.71ZM40.625,53.21L40.625,0.71L37.625,0.71L37.625,53.21L40.625,53.21Z" transform="rotate(180 39.125 26.96)" fill="#000000"/>
<path d="M45.61,17.431C46.195,16.844 46.193,15.894 45.606,15.309C45.019,14.725 44.069,14.727 43.485,15.314L45.61,17.431ZM23.463,37.547L22.401,38.606C22.682,38.888 23.065,39.047 23.464,39.047C23.862,39.047 24.245,38.888 24.526,38.606L23.463,37.547ZM3.439,15.314C2.854,14.727 1.905,14.725 1.318,15.309C0.731,15.894 0.729,16.844 1.313,17.431L3.439,15.314ZM43.485,15.314L22.401,36.489L24.526,38.606L45.61,17.431L43.485,15.314ZM24.526,36.489L3.439,15.314L1.313,17.431L22.401,38.606L24.526,36.489Z" transform="rotate(180 23.462 26.96)" fill="#000000"/>
</svg>
