<svg width="38" height="22" viewBox="0 0 38 22" fill="none" xmlns="http://www.w3.org/2000/svg" xmlns:xlink="http://www.w3.org/1999/xlink">
<path d="M35.486,-0.667L33.305,-0.667C32.1,-0.667 31.124,0.229 31.124,1.333L31.124,18.667C31.124,19.771 32.1,20.667 33.305,20.667L35.486,20.667C36.691,20.667 37.668,19.771 37.668,18.667L37.668,1.333C37.668,0.229 36.691,-0.667 35.486,-0.667ZM23.125,4L25.307,4C26.511,4 27.488,4.895 27.488,6L27.488,18.667C27.488,19.771 26.511,20.667 25.307,20.667L23.125,20.667C21.921,20.667 20.944,19.771 20.944,18.667L20.944,6C20.944,4.895 21.921,4 23.125,4ZM15.127,8.667L12.946,8.667C11.741,8.667 10.765,9.562 10.765,10.667L10.765,18.667C10.765,19.771 11.741,20.667 12.946,20.667L15.127,20.667C16.332,20.667 17.309,19.771 17.309,18.667L17.309,10.667C17.309,9.562 16.332,8.667 15.127,8.667ZM4.948,12.667L2.766,12.667C1.562,12.667 0.585,13.562 0.585,14.667L0.585,18.667C0.585,19.771 1.562,20.667 2.766,20.667L4.948,20.667C6.152,20.667 7.129,19.771 7.129,18.667L7.129,14.667C7.129,13.562 6.152,12.667 4.948,12.667Z" clip-rule="evenodd" fill-rule="evenodd" fill="#FFFFFF"/>
</svg>
